<mxfile host="app.diagrams.net" modified="2023-08-27T08:20:16.912Z" agent="Mozilla/5.0 (Linux; Android 10; K) AppleWebKit/537.36 (KHTML, like Gecko) Chrome/116.0.0.0 Mobile Safari/537.36" etag="NUifP5kEkznobAr3H48E" version="21.6.9" type="google">
  <diagram name="Page-1" id="xzg7ArDctdNY0dsmXSv6">
    <mxGraphModel grid="0" page="0" gridSize="10" guides="1" tooltips="1" connect="1" arrows="1" fold="1" pageScale="1" pageWidth="850" pageHeight="1100" math="0" shadow="0">
      <root>
        <mxCell id="0" />
        <mxCell id="1" parent="0" />
        <mxCell id="V3iOzKDFbdUMj6TOhD_W-8" value="" style="rounded=0;whiteSpace=wrap;html=1;fillColor=#dae8fc;strokeColor=#6c8ebf;" vertex="1" parent="1">
          <mxGeometry x="302.82" y="735" width="597.18" height="315" as="geometry" />
        </mxCell>
        <mxCell id="uDKXR9ngatvno00agGEQ-102" value="" style="rounded=0;whiteSpace=wrap;html=1;fillColor=#d5e8d4;strokeColor=#82b366;" vertex="1" parent="1">
          <mxGeometry x="690" y="751" width="200" height="229" as="geometry" />
        </mxCell>
        <mxCell id="uDKXR9ngatvno00agGEQ-91" value="" style="rounded=0;whiteSpace=wrap;html=1;fillColor=#d5e8d4;strokeColor=#82b366;" vertex="1" parent="1">
          <mxGeometry x="362" y="752" width="322" height="98" as="geometry" />
        </mxCell>
        <mxCell id="uDKXR9ngatvno00agGEQ-77" value="" style="rounded=0;whiteSpace=wrap;html=1;fillColor=#dae8fc;strokeColor=#6c8ebf;" vertex="1" parent="1">
          <mxGeometry x="130" y="380" width="400" height="310" as="geometry" />
        </mxCell>
        <mxCell id="uDKXR9ngatvno00agGEQ-33" style="edgeStyle=orthogonalEdgeStyle;rounded=0;orthogonalLoop=1;jettySize=auto;html=1;exitX=0.5;exitY=0;exitDx=0;exitDy=0;exitPerimeter=0;entryX=0;entryY=0.25;entryDx=0;entryDy=0;entryPerimeter=0;" edge="1" parent="1" source="uDKXR9ngatvno00agGEQ-2" target="uDKXR9ngatvno00agGEQ-32">
          <mxGeometry relative="1" as="geometry" />
        </mxCell>
        <mxCell id="uDKXR9ngatvno00agGEQ-80" style="edgeStyle=orthogonalEdgeStyle;rounded=0;orthogonalLoop=1;jettySize=auto;html=1;exitX=1;exitY=0.25;exitDx=0;exitDy=0;exitPerimeter=0;entryX=0;entryY=0.25;entryDx=0;entryDy=0;" edge="1" parent="1" source="uDKXR9ngatvno00agGEQ-2" target="uDKXR9ngatvno00agGEQ-3">
          <mxGeometry relative="1" as="geometry" />
        </mxCell>
        <mxCell id="uDKXR9ngatvno00agGEQ-2" value="User" style="html=1;whiteSpace=wrap;strokeColor=none;fillColor=#0079D6;labelPosition=center;verticalLabelPosition=middle;verticalAlign=top;align=center;fontSize=12;outlineConnect=0;spacingTop=-6;fontColor=#FFFFFF;shape=mxgraph.sitemap.user;rounded=0;" vertex="1" parent="1">
          <mxGeometry x="-140" y="820" width="120" height="70" as="geometry" />
        </mxCell>
        <mxCell id="uDKXR9ngatvno00agGEQ-82" style="edgeStyle=orthogonalEdgeStyle;rounded=0;orthogonalLoop=1;jettySize=auto;html=1;" edge="1" parent="1" source="uDKXR9ngatvno00agGEQ-3" target="uDKXR9ngatvno00agGEQ-2">
          <mxGeometry relative="1" as="geometry">
            <Array as="points">
              <mxPoint x="20" y="930" />
              <mxPoint x="20" y="855" />
            </Array>
          </mxGeometry>
        </mxCell>
        <mxCell id="uDKXR9ngatvno00agGEQ-97" style="edgeStyle=orthogonalEdgeStyle;rounded=0;orthogonalLoop=1;jettySize=auto;html=1;exitX=1;exitY=0.25;exitDx=0;exitDy=0;entryX=0;entryY=0.5;entryDx=0;entryDy=0;" edge="1" parent="1" source="uDKXR9ngatvno00agGEQ-3" target="uDKXR9ngatvno00agGEQ-5">
          <mxGeometry relative="1" as="geometry" />
        </mxCell>
        <mxCell id="uDKXR9ngatvno00agGEQ-3" value="" style="image;html=1;image=img/lib/clip_art/computers/Server_Rack_128x128.png;rounded=0;" vertex="1" parent="1">
          <mxGeometry x="241.15999999999997" y="885" width="80" height="90" as="geometry" />
        </mxCell>
        <mxCell id="uDKXR9ngatvno00agGEQ-101" style="edgeStyle=orthogonalEdgeStyle;rounded=0;orthogonalLoop=1;jettySize=auto;html=1;exitX=1;exitY=0.5;exitDx=0;exitDy=0;entryX=-0.003;entryY=0.42;entryDx=0;entryDy=0;entryPerimeter=0;" edge="1" parent="1" source="uDKXR9ngatvno00agGEQ-5" target="uDKXR9ngatvno00agGEQ-99">
          <mxGeometry relative="1" as="geometry">
            <Array as="points">
              <mxPoint x="472" y="871" />
            </Array>
          </mxGeometry>
        </mxCell>
        <mxCell id="V3iOzKDFbdUMj6TOhD_W-13" style="edgeStyle=orthogonalEdgeStyle;rounded=0;orthogonalLoop=1;jettySize=auto;html=1;exitX=0;exitY=0.75;exitDx=0;exitDy=0;" edge="1" parent="1" source="uDKXR9ngatvno00agGEQ-5" target="uDKXR9ngatvno00agGEQ-3">
          <mxGeometry relative="1" as="geometry">
            <Array as="points">
              <mxPoint x="390" y="883" />
              <mxPoint x="390" y="930" />
            </Array>
          </mxGeometry>
        </mxCell>
        <mxCell id="uDKXR9ngatvno00agGEQ-5" value="" style="image;aspect=fixed;perimeter=ellipsePerimeter;html=1;align=center;shadow=0;dashed=0;spacingTop=3;image=img/lib/active_directory/web_server.svg;rounded=0;" vertex="1" parent="1">
          <mxGeometry x="424.21000000000004" y="840" width="48" height="60" as="geometry" />
        </mxCell>
        <mxCell id="uDKXR9ngatvno00agGEQ-9" value="&lt;div style=&quot;font-size: 12px;&quot;&gt;&lt;font style=&quot;font-size: 12px;&quot;&gt;www.foobar.com&lt;/font&gt;&lt;/div&gt;" style="text;html=1;align=center;verticalAlign=middle;resizable=0;points=[];autosize=1;strokeColor=none;fillColor=none;fontSize=20;fontFamily=Verdana;rounded=0;rotation=-90;" vertex="1" parent="1">
          <mxGeometry x="-160" y="690" width="120" height="30" as="geometry" />
        </mxCell>
        <mxCell id="uDKXR9ngatvno00agGEQ-10" value="&lt;div style=&quot;font-size: 7px;&quot;&gt;&lt;font size=&quot;1&quot;&gt;&lt;code style=&quot;font-size: 7px;&quot;&gt;foobar.com&lt;/code&gt;&lt;/font&gt;&lt;/div&gt;" style="text;html=1;align=center;verticalAlign=middle;resizable=0;points=[];autosize=1;strokeColor=none;fillColor=none;fontSize=10;fontFamily=Architects Daughter;rounded=0;rotation=0;" vertex="1" parent="1">
          <mxGeometry x="316.16" y="535" width="70" height="30" as="geometry" />
        </mxCell>
        <mxCell id="uDKXR9ngatvno00agGEQ-11" value="&lt;div style=&quot;font-size: 8px;&quot;&gt;&lt;font size=&quot;1&quot;&gt;&lt;code style=&quot;font-size: 8px;&quot;&gt;8.8.8.8&lt;/code&gt;&lt;/font&gt;&lt;/div&gt;" style="text;html=1;align=center;verticalAlign=middle;resizable=0;points=[];autosize=1;strokeColor=none;fillColor=none;fontSize=20;fontFamily=Architects Daughter;rounded=0;" vertex="1" parent="1">
          <mxGeometry x="141" y="535" width="60" height="30" as="geometry" />
        </mxCell>
        <mxCell id="uDKXR9ngatvno00agGEQ-13" value="&lt;font style=&quot;font-size: 12px;&quot;&gt;web server&lt;/font&gt;" style="text;html=1;align=center;verticalAlign=middle;resizable=0;points=[];autosize=1;strokeColor=none;fillColor=none;fontSize=20;fontFamily=Architects Daughter;rounded=0;" vertex="1" parent="1">
          <mxGeometry x="400.37" y="890" width="90" height="40" as="geometry" />
        </mxCell>
        <mxCell id="uDKXR9ngatvno00agGEQ-17" value="server&lt;br style=&quot;font-size: 12px;&quot;&gt;8.8.8.8" style="text;html=1;align=center;verticalAlign=middle;resizable=0;points=[];autosize=1;strokeColor=none;fillColor=none;fontSize=12;fontFamily=Verdana;rounded=0;" vertex="1" parent="1">
          <mxGeometry x="261.15999999999997" y="970" width="70" height="40" as="geometry" />
        </mxCell>
        <mxCell id="uDKXR9ngatvno00agGEQ-19" value="client" style="text;html=1;align=center;verticalAlign=middle;resizable=0;points=[];autosize=1;strokeColor=none;fillColor=none;fontSize=20;fontFamily=Architects Daughter;rounded=0;" vertex="1" parent="1">
          <mxGeometry x="-115" y="880" width="70" height="40" as="geometry" />
        </mxCell>
        <mxCell id="uDKXR9ngatvno00agGEQ-20" value="" style="image;aspect=fixed;html=1;points=[];align=center;fontSize=12;image=img/lib/azure2/networking/DNS_Private_Resolver.svg;hachureGap=4;fontFamily=Architects Daughter;fontSource=https%3A%2F%2Ffonts.googleapis.com%2Fcss%3Ffamily%3DArchitects%2BDaughter;rounded=0;" vertex="1" parent="1">
          <mxGeometry x="234.48999999999998" y="505" width="56.67" height="50" as="geometry" />
        </mxCell>
        <mxCell id="uDKXR9ngatvno00agGEQ-21" value="&lt;font style=&quot;font-size: 8px;&quot; face=&quot;Verdana&quot;&gt;resolver server&lt;br&gt;&lt;/font&gt;&lt;div style=&quot;font-size: 8px;&quot; align=&quot;center&quot;&gt;&lt;font style=&quot;font-size: 8px;&quot; face=&quot;Verdana&quot;&gt; (ISP)&lt;/font&gt;&lt;/div&gt;" style="text;html=1;align=center;verticalAlign=middle;resizable=0;points=[];autosize=1;strokeColor=none;fillColor=none;fontSize=20;fontFamily=Architects Daughter;rounded=0;" vertex="1" parent="1">
          <mxGeometry x="200.99999999999997" y="464" width="80" height="50" as="geometry" />
        </mxCell>
        <mxCell id="uDKXR9ngatvno00agGEQ-26" value="" style="image;points=[];aspect=fixed;html=1;align=center;shadow=0;dashed=0;image=img/lib/allied_telesis/storage/Datacenter_Server_Storage_Unit_Large.svg;" vertex="1" parent="1">
          <mxGeometry x="310.13000000000005" y="400" width="62.06" height="64" as="geometry" />
        </mxCell>
        <mxCell id="uDKXR9ngatvno00agGEQ-27" value="&lt;font style=&quot;font-size: 8px;&quot;&gt;root&lt;font style=&quot;font-size: 8px;&quot;&gt; server&lt;br&gt;&lt;/font&gt;&lt;/font&gt;" style="text;html=1;align=center;verticalAlign=middle;resizable=0;points=[];autosize=1;strokeColor=none;fillColor=none;fontSize=20;fontFamily=Architects Daughter;rounded=0;" vertex="1" parent="1">
          <mxGeometry x="296.15999999999997" y="370" width="70" height="40" as="geometry" />
        </mxCell>
        <mxCell id="uDKXR9ngatvno00agGEQ-30" value="" style="endArrow=classic;html=1;rounded=0;" edge="1" parent="1" source="uDKXR9ngatvno00agGEQ-20" target="uDKXR9ngatvno00agGEQ-26">
          <mxGeometry width="50" height="50" relative="1" as="geometry">
            <mxPoint x="271.15999999999997" y="490" as="sourcePoint" />
            <mxPoint x="321.16" y="440" as="targetPoint" />
          </mxGeometry>
        </mxCell>
        <mxCell id="uDKXR9ngatvno00agGEQ-74" style="edgeStyle=orthogonalEdgeStyle;rounded=0;orthogonalLoop=1;jettySize=auto;html=1;exitX=0;exitY=0.5;exitDx=0;exitDy=0;exitPerimeter=0;entryX=0.75;entryY=0;entryDx=0;entryDy=0;entryPerimeter=0;" edge="1" parent="1" source="uDKXR9ngatvno00agGEQ-32" target="uDKXR9ngatvno00agGEQ-2">
          <mxGeometry relative="1" as="geometry" />
        </mxCell>
        <mxCell id="uDKXR9ngatvno00agGEQ-32" value="" style="sketch=0;points=[[0.015,0.015,0],[0.985,0.015,0],[0.985,0.985,0],[0.015,0.985,0],[0.25,0,0],[0.5,0,0],[0.75,0,0],[1,0.25,0],[1,0.5,0],[1,0.75,0],[0.75,1,0],[0.5,1,0],[0.25,1,0],[0,0.75,0],[0,0.5,0],[0,0.25,0]];verticalLabelPosition=bottom;html=1;verticalAlign=top;aspect=fixed;align=center;pointerEvents=1;shape=mxgraph.cisco19.dns_server;fillColor=#005073;strokeColor=none;" vertex="1" parent="1">
          <mxGeometry x="82.14999999999999" y="486.5" width="47.85" height="87" as="geometry" />
        </mxCell>
        <mxCell id="uDKXR9ngatvno00agGEQ-34" value="" style="image;points=[];aspect=fixed;html=1;align=center;shadow=0;dashed=0;image=img/lib/allied_telesis/storage/Datacenter_Server_Storage_Unit_Large.svg;" vertex="1" parent="1">
          <mxGeometry x="400.37" y="493.5" width="70.79" height="73" as="geometry" />
        </mxCell>
        <mxCell id="uDKXR9ngatvno00agGEQ-35" value="&lt;font style=&quot;font-size: 8px;&quot;&gt;TLD server&lt;/font&gt;&lt;br&gt;&lt;font style=&quot;font-size: 10px;&quot;&gt;(.com)&lt;/font&gt;" style="text;html=1;align=center;verticalAlign=middle;resizable=0;points=[];autosize=1;strokeColor=none;fillColor=none;" vertex="1" parent="1">
          <mxGeometry x="470.00000000000006" y="513.5" width="60" height="40" as="geometry" />
        </mxCell>
        <mxCell id="uDKXR9ngatvno00agGEQ-39" value="&lt;div style=&quot;font-size: 7px;&quot;&gt;2&lt;/div&gt;" style="text;html=1;align=center;verticalAlign=middle;resizable=0;points=[];autosize=1;strokeColor=none;fillColor=none;fontSize=7;rotation=-45;" vertex="1" parent="1">
          <mxGeometry x="272.82" y="473.5" width="30" height="20" as="geometry" />
        </mxCell>
        <mxCell id="uDKXR9ngatvno00agGEQ-41" value="" style="endArrow=classic;html=1;rounded=0;" edge="1" parent="1" source="uDKXR9ngatvno00agGEQ-32" target="uDKXR9ngatvno00agGEQ-20">
          <mxGeometry width="50" height="50" relative="1" as="geometry">
            <mxPoint x="130" y="530" as="sourcePoint" />
            <mxPoint x="211.16" y="530" as="targetPoint" />
          </mxGeometry>
        </mxCell>
        <mxCell id="uDKXR9ngatvno00agGEQ-43" value="&lt;font style=&quot;font-size: 7px;&quot;&gt;1&lt;/font&gt;" style="text;html=1;align=center;verticalAlign=middle;resizable=0;points=[];autosize=1;strokeColor=none;fillColor=none;rotation=0;" vertex="1" parent="1">
          <mxGeometry x="124.48999999999997" y="505" width="30" height="30" as="geometry" />
        </mxCell>
        <mxCell id="uDKXR9ngatvno00agGEQ-44" value="" style="endArrow=classic;html=1;rounded=0;entryX=0.98;entryY=0.429;entryDx=0;entryDy=0;entryPerimeter=0;exitX=0.449;exitY=1.038;exitDx=0;exitDy=0;exitPerimeter=0;" edge="1" parent="1" source="uDKXR9ngatvno00agGEQ-26" target="uDKXR9ngatvno00agGEQ-20">
          <mxGeometry width="50" height="50" relative="1" as="geometry">
            <mxPoint x="293.16" y="515" as="sourcePoint" />
            <mxPoint x="325.16" y="474" as="targetPoint" />
          </mxGeometry>
        </mxCell>
        <mxCell id="uDKXR9ngatvno00agGEQ-46" value="3" style="text;html=1;align=center;verticalAlign=middle;resizable=0;points=[];autosize=1;strokeColor=none;fillColor=none;fontSize=7;rotation=-45;" vertex="1" parent="1">
          <mxGeometry x="327.37" y="464" width="30" height="20" as="geometry" />
        </mxCell>
        <mxCell id="uDKXR9ngatvno00agGEQ-51" value="" style="endArrow=classic;html=1;rounded=0;entryX=0.039;entryY=0.49;entryDx=0;entryDy=0;entryPerimeter=0;" edge="1" parent="1" source="uDKXR9ngatvno00agGEQ-20" target="uDKXR9ngatvno00agGEQ-34">
          <mxGeometry width="50" height="50" relative="1" as="geometry">
            <mxPoint x="348.16" y="476" as="sourcePoint" />
            <mxPoint x="300.16" y="536" as="targetPoint" />
          </mxGeometry>
        </mxCell>
        <mxCell id="uDKXR9ngatvno00agGEQ-52" value="4" style="text;html=1;align=center;verticalAlign=middle;resizable=0;points=[];autosize=1;strokeColor=none;fillColor=none;fontSize=7;rotation=0;" vertex="1" parent="1">
          <mxGeometry x="301" y="515" width="30" height="20" as="geometry" />
        </mxCell>
        <mxCell id="uDKXR9ngatvno00agGEQ-55" value="" style="endArrow=classic;html=1;rounded=0;exitX=-0.017;exitY=0.647;exitDx=0;exitDy=0;exitPerimeter=0;entryX=1.02;entryY=0.714;entryDx=0;entryDy=0;entryPerimeter=0;" edge="1" parent="1" source="uDKXR9ngatvno00agGEQ-34" target="uDKXR9ngatvno00agGEQ-20">
          <mxGeometry width="50" height="50" relative="1" as="geometry">
            <mxPoint x="301.16" y="540" as="sourcePoint" />
            <mxPoint x="413.16" y="539" as="targetPoint" />
          </mxGeometry>
        </mxCell>
        <mxCell id="uDKXR9ngatvno00agGEQ-56" value="5" style="text;html=1;align=center;verticalAlign=middle;resizable=0;points=[];autosize=1;strokeColor=none;fillColor=none;fontSize=7;rotation=0;" vertex="1" parent="1">
          <mxGeometry x="372.19" y="535" width="30" height="20" as="geometry" />
        </mxCell>
        <mxCell id="uDKXR9ngatvno00agGEQ-58" value="" style="image;points=[];aspect=fixed;html=1;align=center;shadow=0;dashed=0;image=img/lib/allied_telesis/storage/Datacenter_Server_Rack_EoR.svg;" vertex="1" parent="1">
          <mxGeometry x="336.16" y="580" width="43.05" height="87" as="geometry" />
        </mxCell>
        <mxCell id="uDKXR9ngatvno00agGEQ-59" value="" style="endArrow=classic;html=1;rounded=0;exitX=-0.024;exitY=0.521;exitDx=0;exitDy=0;exitPerimeter=0;entryX=0.506;entryY=0.989;entryDx=0;entryDy=0;entryPerimeter=0;" edge="1" parent="1" source="uDKXR9ngatvno00agGEQ-58" target="uDKXR9ngatvno00agGEQ-20">
          <mxGeometry width="50" height="50" relative="1" as="geometry">
            <mxPoint x="270" y="560" as="sourcePoint" />
            <mxPoint x="310.13" y="610" as="targetPoint" />
          </mxGeometry>
        </mxCell>
        <mxCell id="uDKXR9ngatvno00agGEQ-60" value="" style="endArrow=classic;html=1;rounded=0;entryX=0.003;entryY=0.31;entryDx=0;entryDy=0;entryPerimeter=0;exitX=0.778;exitY=0.954;exitDx=0;exitDy=0;exitPerimeter=0;" edge="1" parent="1" source="uDKXR9ngatvno00agGEQ-20" target="uDKXR9ngatvno00agGEQ-58">
          <mxGeometry width="50" height="50" relative="1" as="geometry">
            <mxPoint x="216" y="580" as="sourcePoint" />
            <mxPoint x="320" y="580" as="targetPoint" />
          </mxGeometry>
        </mxCell>
        <mxCell id="uDKXR9ngatvno00agGEQ-61" value="&lt;font style=&quot;font-size: 7px;&quot;&gt;authoritative name servers &lt;/font&gt;" style="text;html=1;align=center;verticalAlign=middle;resizable=0;points=[];autosize=1;strokeColor=none;fillColor=none;" vertex="1" parent="1">
          <mxGeometry x="310.13000000000005" y="660" width="110" height="30" as="geometry" />
        </mxCell>
        <mxCell id="uDKXR9ngatvno00agGEQ-63" value="6" style="text;html=1;align=center;verticalAlign=middle;resizable=0;points=[];autosize=1;strokeColor=none;fillColor=none;fontSize=7;rotation=45;" vertex="1" parent="1">
          <mxGeometry x="276.16" y="546.5" width="30" height="20" as="geometry" />
        </mxCell>
        <mxCell id="uDKXR9ngatvno00agGEQ-64" value="&lt;div&gt;7&lt;/div&gt;" style="text;html=1;align=center;verticalAlign=middle;resizable=0;points=[];autosize=1;strokeColor=none;fillColor=none;fontSize=7;rotation=45;" vertex="1" parent="1">
          <mxGeometry x="306.16" y="613.5" width="30" height="20" as="geometry" />
        </mxCell>
        <mxCell id="uDKXR9ngatvno00agGEQ-66" value="&lt;div style=&quot;font-size: 8px;&quot;&gt;&lt;font style=&quot;font-size: 8px;&quot;&gt;8.8.8.8&lt;/font&gt;&lt;/div&gt;" style="text;html=1;align=center;verticalAlign=middle;resizable=0;points=[];autosize=1;strokeColor=none;fillColor=none;rotation=45;" vertex="1" parent="1">
          <mxGeometry x="256.15999999999997" y="580" width="50" height="20" as="geometry" />
        </mxCell>
        <mxCell id="uDKXR9ngatvno00agGEQ-68" value="" style="endArrow=classic;html=1;rounded=0;entryX=0.893;entryY=0.643;entryDx=0;entryDy=0;entryPerimeter=0;exitX=-0.059;exitY=0.737;exitDx=0;exitDy=0;exitPerimeter=0;" edge="1" parent="1" source="uDKXR9ngatvno00agGEQ-20" target="uDKXR9ngatvno00agGEQ-32">
          <mxGeometry width="50" height="50" relative="1" as="geometry">
            <mxPoint x="140" y="540" as="sourcePoint" />
            <mxPoint x="244" y="540" as="targetPoint" />
          </mxGeometry>
        </mxCell>
        <mxCell id="uDKXR9ngatvno00agGEQ-70" value="&lt;div style=&quot;font-size: 7px;&quot;&gt;8&lt;/div&gt;" style="text;html=1;align=center;verticalAlign=middle;resizable=0;points=[];autosize=1;strokeColor=none;fillColor=none;rotation=0;fontSize=7;" vertex="1" parent="1">
          <mxGeometry x="200.99999999999997" y="540" width="30" height="20" as="geometry" />
        </mxCell>
        <mxCell id="uDKXR9ngatvno00agGEQ-71" value="&lt;div style=&quot;font-size: 7px;&quot;&gt;&lt;font size=&quot;1&quot;&gt;&lt;code style=&quot;font-size: 7px;&quot;&gt;foobar.com&lt;/code&gt;&lt;/font&gt;&lt;/div&gt;" style="text;html=1;align=center;verticalAlign=middle;resizable=0;points=[];autosize=1;strokeColor=none;fillColor=none;fontSize=10;fontFamily=Architects Daughter;rounded=0;rotation=45;" vertex="1" parent="1">
          <mxGeometry x="281" y="560" width="70" height="30" as="geometry" />
        </mxCell>
        <mxCell id="uDKXR9ngatvno00agGEQ-75" value="&lt;div style=&quot;font-size: 8px;&quot;&gt;&lt;font size=&quot;1&quot;&gt;&lt;code style=&quot;font-size: 8px;&quot;&gt;8.8.8.8&lt;/code&gt;&lt;/font&gt;&lt;/div&gt;" style="text;html=1;align=center;verticalAlign=middle;resizable=0;points=[];autosize=1;strokeColor=none;fillColor=none;fontSize=20;fontFamily=Architects Daughter;rounded=0;" vertex="1" parent="1">
          <mxGeometry x="-10" y="525" width="60" height="30" as="geometry" />
        </mxCell>
        <mxCell id="uDKXR9ngatvno00agGEQ-76" value="&lt;div style=&quot;font-size: 7px;&quot;&gt;&lt;font style=&quot;font-size: 7px;&quot;&gt;www.foobar.com&lt;/font&gt;&lt;/div&gt;" style="text;html=1;align=center;verticalAlign=middle;resizable=0;points=[];autosize=1;strokeColor=none;fillColor=none;fontSize=7;fontFamily=Verdana;rounded=0;rotation=0;" vertex="1" parent="1">
          <mxGeometry x="150" y="510" width="80" height="20" as="geometry" />
        </mxCell>
        <mxCell id="uDKXR9ngatvno00agGEQ-78" value="1" style="text;html=1;align=center;verticalAlign=middle;resizable=0;points=[];autosize=1;strokeColor=none;fillColor=none;" vertex="1" parent="1">
          <mxGeometry x="-115" y="780" width="30" height="30" as="geometry" />
        </mxCell>
        <mxCell id="uDKXR9ngatvno00agGEQ-79" value="8" style="text;html=1;align=center;verticalAlign=middle;resizable=0;points=[];autosize=1;strokeColor=none;fillColor=none;" vertex="1" parent="1">
          <mxGeometry x="-50" y="780" width="30" height="30" as="geometry" />
        </mxCell>
        <mxCell id="uDKXR9ngatvno00agGEQ-81" value="http/s request" style="text;html=1;align=center;verticalAlign=middle;resizable=0;points=[];autosize=1;strokeColor=none;fillColor=none;" vertex="1" parent="1">
          <mxGeometry x="121" y="880" width="100" height="30" as="geometry" />
        </mxCell>
        <mxCell id="uDKXR9ngatvno00agGEQ-83" value="http/s response" style="text;html=1;align=center;verticalAlign=middle;resizable=0;points=[];autosize=1;strokeColor=none;fillColor=none;" vertex="1" parent="1">
          <mxGeometry x="84.49" y="935" width="110" height="30" as="geometry" />
        </mxCell>
        <mxCell id="uDKXR9ngatvno00agGEQ-84" value="9" style="text;html=1;align=center;verticalAlign=middle;resizable=0;points=[];autosize=1;strokeColor=none;fillColor=none;" vertex="1" parent="1">
          <mxGeometry x="-10" y="810" width="30" height="30" as="geometry" />
        </mxCell>
        <mxCell id="uDKXR9ngatvno00agGEQ-85" value="" style="shadow=0;dashed=0;html=1;strokeColor=none;fillColor=#4495D1;labelPosition=center;verticalLabelPosition=bottom;verticalAlign=top;align=center;outlineConnect=0;shape=mxgraph.veeam.2d.service;" vertex="1" parent="1">
          <mxGeometry x="383.21000000000004" y="760.8999999999999" width="23.84" height="23.2" as="geometry" />
        </mxCell>
        <mxCell id="uDKXR9ngatvno00agGEQ-86" value="&lt;div style=&quot;font-size: 11px;&quot;&gt;&lt;font style=&quot;font-size: 8px;&quot;&gt;(Nginx)&lt;/font&gt;&lt;/div&gt;" style="text;html=1;align=center;verticalAlign=middle;resizable=0;points=[];autosize=1;strokeColor=none;fillColor=none;" vertex="1" parent="1">
          <mxGeometry x="350.37" y="769.9999999999999" width="50" height="30" as="geometry" />
        </mxCell>
        <mxCell id="uDKXR9ngatvno00agGEQ-87" value="" style="html=1;verticalLabelPosition=bottom;align=center;labelBackgroundColor=#ffffff;verticalAlign=top;strokeWidth=2;strokeColor=#0080F0;shadow=0;dashed=0;shape=mxgraph.ios7.icons.data;" vertex="1" parent="1">
          <mxGeometry x="468" y="760.9" width="24" height="29.099999999999998" as="geometry" />
        </mxCell>
        <mxCell id="uDKXR9ngatvno00agGEQ-88" value="static database" style="text;html=1;align=center;verticalAlign=middle;resizable=0;points=[];autosize=1;strokeColor=none;fillColor=none;fontSize=8;" vertex="1" parent="1">
          <mxGeometry x="440" y="792.05" width="80" height="20" as="geometry" />
        </mxCell>
        <mxCell id="uDKXR9ngatvno00agGEQ-92" value="" style="endArrow=classic;startArrow=classic;html=1;rounded=0;entryX=0.329;entryY=0.167;entryDx=0;entryDy=0;entryPerimeter=0;" edge="1" parent="1" source="uDKXR9ngatvno00agGEQ-85" target="uDKXR9ngatvno00agGEQ-5">
          <mxGeometry width="50" height="50" relative="1" as="geometry">
            <mxPoint x="380" y="850" as="sourcePoint" />
            <mxPoint x="430" y="800" as="targetPoint" />
          </mxGeometry>
        </mxCell>
        <mxCell id="uDKXR9ngatvno00agGEQ-95" value="" style="endArrow=classic;startArrow=classic;html=1;rounded=0;entryX=-0.036;entryY=0.426;entryDx=0;entryDy=0;entryPerimeter=0;" edge="1" parent="1" source="uDKXR9ngatvno00agGEQ-85" target="uDKXR9ngatvno00agGEQ-87">
          <mxGeometry width="50" height="50" relative="1" as="geometry">
            <mxPoint x="360" y="970" as="sourcePoint" />
            <mxPoint x="410" y="920" as="targetPoint" />
          </mxGeometry>
        </mxCell>
        <mxCell id="uDKXR9ngatvno00agGEQ-98" value="9" style="text;html=1;align=center;verticalAlign=middle;resizable=0;points=[];autosize=1;strokeColor=none;fillColor=none;" vertex="1" parent="1">
          <mxGeometry x="321" y="885" width="30" height="30" as="geometry" />
        </mxCell>
        <mxCell id="uDKXR9ngatvno00agGEQ-99" value="" style="aspect=fixed;pointerEvents=1;shadow=0;dashed=0;html=1;strokeColor=none;labelPosition=center;verticalLabelPosition=bottom;verticalAlign=top;align=center;fillColor=#00188D;shape=mxgraph.mscae.enterprise.application_server;rounded=0;" vertex="1" parent="1">
          <mxGeometry x="665" y="850" width="43" height="50" as="geometry" />
        </mxCell>
        <mxCell id="uDKXR9ngatvno00agGEQ-100" value="&lt;font style=&quot;font-size: 12px;&quot;&gt;application server&lt;/font&gt;" style="text;html=1;align=center;verticalAlign=middle;resizable=0;points=[];autosize=1;strokeColor=none;fillColor=none;fontSize=20;fontFamily=Architects Daughter;rounded=0;" vertex="1" parent="1">
          <mxGeometry x="620" y="890" width="120" height="40" as="geometry" />
        </mxCell>
        <mxCell id="uDKXR9ngatvno00agGEQ-103" value="" style="endArrow=classic;html=1;rounded=0;entryX=1;entryY=0.75;entryDx=0;entryDy=0;exitX=-0.017;exitY=0.671;exitDx=0;exitDy=0;exitPerimeter=0;" edge="1" parent="1" source="uDKXR9ngatvno00agGEQ-99" target="uDKXR9ngatvno00agGEQ-5">
          <mxGeometry width="50" height="50" relative="1" as="geometry">
            <mxPoint x="560" y="1010" as="sourcePoint" />
            <mxPoint x="610" y="960" as="targetPoint" />
          </mxGeometry>
        </mxCell>
        <mxCell id="uDKXR9ngatvno00agGEQ-107" value="&lt;font style=&quot;font-size: 8px;&quot;&gt;dynamic&lt;/font&gt;&lt;font style=&quot;font-size: 8px;&quot;&gt; DB&lt;/font&gt;" style="text;html=1;align=center;verticalAlign=middle;resizable=0;points=[];autosize=1;strokeColor=none;fillColor=none;fontSize=20;fontFamily=Architects Daughter;rounded=0;" vertex="1" parent="1">
          <mxGeometry x="798" y="887.5" width="70" height="40" as="geometry" />
        </mxCell>
        <mxCell id="uDKXR9ngatvno00agGEQ-109" value="" style="verticalLabelPosition=bottom;html=1;verticalAlign=top;align=center;strokeColor=none;fillColor=#00BEF2;shape=mxgraph.azure.mysql_database;" vertex="1" parent="1">
          <mxGeometry x="813.13" y="857.5" width="37.5" height="50" as="geometry" />
        </mxCell>
        <mxCell id="V3iOzKDFbdUMj6TOhD_W-1" value="&lt;div&gt;10&lt;/div&gt;" style="text;html=1;align=center;verticalAlign=middle;resizable=0;points=[];autosize=1;strokeColor=none;fillColor=none;" vertex="1" parent="1">
          <mxGeometry x="460" y="850" width="40" height="30" as="geometry" />
        </mxCell>
        <mxCell id="V3iOzKDFbdUMj6TOhD_W-2" value="servlet request" style="text;html=1;align=center;verticalAlign=middle;resizable=0;points=[];autosize=1;strokeColor=none;fillColor=none;" vertex="1" parent="1">
          <mxGeometry x="520" y="850" width="100" height="30" as="geometry" />
        </mxCell>
        <mxCell id="V3iOzKDFbdUMj6TOhD_W-3" value="servlet response" style="text;html=1;align=center;verticalAlign=middle;resizable=0;points=[];autosize=1;strokeColor=none;fillColor=none;" vertex="1" parent="1">
          <mxGeometry x="515" y="880" width="110" height="30" as="geometry" />
        </mxCell>
        <mxCell id="V3iOzKDFbdUMj6TOhD_W-4" value="" style="html=1;verticalLabelPosition=bottom;align=center;labelBackgroundColor=#ffffff;verticalAlign=top;strokeWidth=2;strokeColor=#0080F0;shadow=0;dashed=0;shape=mxgraph.ios7.icons.folders;rounded=0;" vertex="1" parent="1">
          <mxGeometry x="656" y="768.05" width="63.5" height="44" as="geometry" />
        </mxCell>
        <mxCell id="V3iOzKDFbdUMj6TOhD_W-5" value="&lt;div style=&quot;font-size: 8px;&quot;&gt;&lt;font style=&quot;font-size: 8px;&quot;&gt;application files&amp;nbsp;&lt;/font&gt;&lt;/div&gt;&lt;div style=&quot;font-size: 8px;&quot;&gt;&lt;font style=&quot;font-size: 8px;&quot;&gt;(code base)&lt;/font&gt;&lt;/div&gt;" style="text;html=1;align=center;verticalAlign=middle;resizable=0;points=[];autosize=1;strokeColor=none;fillColor=none;fontSize=20;fontFamily=Architects Daughter;rounded=0;" vertex="1" parent="1">
          <mxGeometry x="651" y="779.55" width="80" height="30" as="geometry" />
        </mxCell>
        <mxCell id="V3iOzKDFbdUMj6TOhD_W-7" value="" style="endArrow=classic;startArrow=classic;html=1;rounded=0;exitX=1;exitY=0.62;exitDx=0;exitDy=0;exitPerimeter=0;entryX=0;entryY=0.5;entryDx=0;entryDy=0;entryPerimeter=0;" edge="1" parent="1" source="uDKXR9ngatvno00agGEQ-99" target="uDKXR9ngatvno00agGEQ-109">
          <mxGeometry width="50" height="50" relative="1" as="geometry">
            <mxPoint x="703" y="874" as="sourcePoint" />
            <mxPoint x="750" y="863" as="targetPoint" />
          </mxGeometry>
        </mxCell>
        <mxCell id="V3iOzKDFbdUMj6TOhD_W-11" value="http/s request" style="text;html=1;align=center;verticalAlign=middle;resizable=0;points=[];autosize=1;strokeColor=none;fillColor=none;fontSize=8;" vertex="1" parent="1">
          <mxGeometry x="360.13" y="850" width="70" height="20" as="geometry" />
        </mxCell>
        <mxCell id="V3iOzKDFbdUMj6TOhD_W-15" value="11" style="text;html=1;align=center;verticalAlign=middle;resizable=0;points=[];autosize=1;strokeColor=none;fillColor=none;" vertex="1" parent="1">
          <mxGeometry x="631" y="884" width="31" height="26" as="geometry" />
        </mxCell>
        <mxCell id="V3iOzKDFbdUMj6TOhD_W-16" value="http/s response" style="text;html=1;align=center;verticalAlign=middle;resizable=0;points=[];autosize=1;strokeColor=none;fillColor=none;fontSize=8;" vertex="1" parent="1">
          <mxGeometry x="327.37" y="930" width="73" height="22" as="geometry" />
        </mxCell>
        <mxCell id="V3iOzKDFbdUMj6TOhD_W-17" value="12" style="text;html=1;align=center;verticalAlign=middle;resizable=0;points=[];autosize=1;strokeColor=none;fillColor=none;fontSize=10;" vertex="1" parent="1">
          <mxGeometry x="398" y="878" width="29" height="24" as="geometry" />
        </mxCell>
        <mxCell id="V3iOzKDFbdUMj6TOhD_W-18" value="TLD address" style="text;html=1;align=center;verticalAlign=middle;resizable=0;points=[];autosize=1;strokeColor=none;fillColor=none;fontSize=8;fontFamily=Architects Daughter;rounded=0;rotation=-50;" vertex="1" parent="1">
          <mxGeometry x="272.82000000000005" y="486.5" width="66" height="22" as="geometry" />
        </mxCell>
        <mxCell id="V3iOzKDFbdUMj6TOhD_W-19" value="servlets are usually a small java program &lt;br&gt;that runs in the web server to receive and respond&lt;br&gt;to requests from web clients" style="text;html=1;align=center;verticalAlign=middle;resizable=0;points=[];autosize=1;strokeColor=none;fillColor=none;" vertex="1" parent="1">
          <mxGeometry x="616" y="382" width="284" height="55" as="geometry" />
        </mxCell>
        <mxCell id="V3iOzKDFbdUMj6TOhD_W-26" value="" style="endArrow=classic;startArrow=classic;html=1;rounded=0;" edge="1" parent="1">
          <mxGeometry width="50" height="50" relative="1" as="geometry">
            <mxPoint x="689.3530580843699" y="850" as="sourcePoint" />
            <mxPoint x="698" y="815" as="targetPoint" />
          </mxGeometry>
        </mxCell>
        <mxCell id="V3iOzKDFbdUMj6TOhD_W-28" value="" style="endArrow=classic;startArrow=classic;html=1;rounded=0;entryX=0.75;entryY=0;entryDx=0;entryDy=0;" edge="1" parent="1" source="V3iOzKDFbdUMj6TOhD_W-5" target="uDKXR9ngatvno00agGEQ-5">
          <mxGeometry width="50" height="50" relative="1" as="geometry">
            <mxPoint x="412" y="794" as="sourcePoint" />
            <mxPoint x="450" y="860" as="targetPoint" />
          </mxGeometry>
        </mxCell>
      </root>
    </mxGraphModel>
  </diagram>
</mxfile>
